<svg width="64" height="64" viewBox="0 0 64 64" fill="none" xmlns="http://www.w3.org/2000/svg">
<path d="M50.5029 5.35181L58.4826 13.3317L52.4003 19.4138L44.4206 11.4339L50.5029 5.35181Z" fill="#0B061E"/>
<path d="M21.2773 42.555H29.2565L48.6378 23.1737L40.6586 15.1946L21.2773 34.5759V42.555Z" fill="#0B061E"/>
<path d="M50.5348 50.5343H21.6983C21.6291 50.5343 21.5573 50.5609 21.4882 50.5609C21.4004 50.5609 21.3126 50.537 21.2222 50.5343H13.2989V13.2984H31.5099L36.8294 7.979H13.2989C10.3653 7.979 7.97949 10.3621 7.97949 13.2984V50.5343C7.97949 53.4707 10.3653 55.8538 13.2989 55.8538H50.5348C53.4712 55.8538 55.8542 53.4707 55.8542 50.5343V27.48L50.5348 32.7994V50.5343Z" fill="#0B061E"/>
</svg>
