<svg width="40" height="41" viewBox="0 0 40 41" fill="none" xmlns="http://www.w3.org/2000/svg">
<g opacity="0.5">
<path d="M4.99987 22.1668H6.66653V25.5001V33.8334C6.66653 35.6718 8.16153 37.1668 9.99987 37.1668H14.9999H24.9999H29.9999C31.8382 37.1668 33.3332 35.6718 33.3332 33.8334V25.5001V22.1668H34.9999C35.6732 22.1668 36.2832 21.7601 36.5399 21.1384C36.7982 20.5151 36.6549 19.7984 36.1782 19.3218L21.1782 4.32176C20.5265 3.67009 19.4732 3.67009 18.8215 4.32176L3.82153 19.3218C3.34487 19.7984 3.20153 20.5151 3.45987 21.1384C3.71653 21.7601 4.32653 22.1668 4.99987 22.1668ZM16.6665 33.8334V25.5001H23.3332V33.8334H16.6665ZM19.9999 7.85676L29.9999 17.8568V25.5001L30.0015 33.8334H26.6665V25.5001C26.6665 23.6618 25.1715 22.1668 23.3332 22.1668H16.6665C14.8282 22.1668 13.3332 23.6618 13.3332 25.5001V33.8334H9.99987V25.5001V20.5001V17.8568L19.9999 7.85676Z" fill="white"/>
</g>
</svg>
