<svg width="40" height="41" viewBox="0 0 40 41" fill="none" xmlns="http://www.w3.org/2000/svg">
<path opacity="0.5" d="M20 0.5C8.96 0.5 0 9.46 0 20.5C0 31.54 8.96 40.5 20 40.5C31.04 40.5 40 31.54 40 20.5C40 9.46 31.04 0.5 20 0.5ZM20 36.5C11.18 36.5 4 29.32 4 20.5C4 11.68 11.18 4.5 20 4.5C28.82 4.5 36 11.68 36 20.5C36 29.32 28.82 36.5 20 36.5ZM20.62 18.78C17.08 17.88 15.94 16.9 15.94 15.44C15.94 13.76 17.52 12.58 20.14 12.58C22.9 12.58 23.94 13.9 24.02 15.86H27.44C27.34 13.18 25.7 10.72 22.46 9.92V6.5H17.8V9.88C14.78 10.52 12.36 12.48 12.36 15.5C12.36 19.08 15.34 20.88 19.68 21.92C23.58 22.84 24.36 24.22 24.36 25.66C24.36 26.72 23.58 28.44 20.16 28.44C16.96 28.44 15.7 27 15.52 25.16H12.08C12.28 28.56 14.8 30.48 17.8 31.1V34.5H22.48V31.16C25.52 30.58 27.92 28.84 27.94 25.62C27.92 21.22 24.14 19.7 20.62 18.78Z" fill="white"/>
</svg>
