<svg width="40" height="41" viewBox="0 0 40 41" fill="none" xmlns="http://www.w3.org/2000/svg">
<g opacity="0.5">
<path d="M32.5 6.33301L30 3.83301L27.5 6.33301L25 3.83301L22.5 6.33301L20 3.83301L17.5 6.33301L15 3.83301L12.5 6.33301L10 3.83301V27.1663H5V32.1663C5 34.933 7.23333 37.1663 10 37.1663H30C32.7667 37.1663 35 34.933 35 32.1663V3.83301L32.5 6.33301ZM25 33.833H10C9.08333 33.833 8.33333 33.083 8.33333 32.1663V30.4997H25V33.833ZM31.6667 32.1663C31.6667 33.083 30.9167 33.833 30 33.833C29.0833 33.833 28.3333 33.083 28.3333 32.1663V27.1663H13.3333V8.83301H31.6667V32.1663Z" fill="white"/>
<path d="M25 12.1663H15V15.4997H25V12.1663Z" fill="white"/>
<path d="M30 12.1663H26.6667V15.4997H30V12.1663Z" fill="white"/>
<path d="M25 17.1663H15V20.4997H25V17.1663Z" fill="white"/>
<path d="M30 17.1663H26.6667V20.4997H30V17.1663Z" fill="white"/>
</g>
</svg>
