<svg width="24" height="25" viewBox="0 0 24 25" fill="none" xmlns="http://www.w3.org/2000/svg">
<path d="M19.5 4.25L18 2.75L16.5 4.25L15 2.75L13.5 4.25L12 2.75L10.5 4.25L9 2.75L7.5 4.25L6 2.75V16.75H3V19.75C3 21.41 4.34 22.75 6 22.75H18C19.66 22.75 21 21.41 21 19.75V2.75L19.5 4.25ZM15 20.75H6C5.45 20.75 5 20.3 5 19.75V18.75H15V20.75ZM19 19.75C19 20.3 18.55 20.75 18 20.75C17.45 20.75 17 20.3 17 19.75V16.75H8V5.75H19V19.75Z" fill="#666666"/>
<path d="M15 7.75H9V9.75H15V7.75Z" fill="#666666"/>
<path d="M18 7.75H16V9.75H18V7.75Z" fill="#666666"/>
<path d="M15 10.75H9V12.75H15V10.75Z" fill="#666666"/>
<path d="M18 10.75H16V12.75H18V10.75Z" fill="#666666"/>
</svg>
